<svg version="1" xmlns="http://www.w3.org/2000/svg" width="402.667" height="402.667" viewBox="0 0 302.000000 302.000000"><path d="M113.6 48.7c-.1.2-25.5.3-56.4.3L1 49.1l-.1 3.2c-.1 5.4.2 14.2.6 14.6.2.2 7.5.3 16.2.3s37.4-.1 63.8-.1c26.4-.1 48.9-.1 50-.1 1.9 0 1.9 0 0 1.5-2.2 1.8-60.8 44.9-98.8 72.7C18 152 7.3 160.5 6.4 162.2c-3.3 6.3-.8 9.3 16.3 19.1 8.2 4.7 22 12.7 30.8 17.8C134.6 246 150.7 255 153.7 255c2.3 0 3.8-.8 5.7-3.1l2.6-3.1V158c0-85.6.1-90.8 1.8-91.1.9-.2 32.1-.4 69.2-.4 51.5 0 67.6-.3 68-1.2.3-.7.3-4.7 0-9l-.5-7.8h-93.3c-51.4 0-93.5.1-93.6.2zm30 181c-.2.2-11.1-5.9-24.2-13.5-13.2-7.7-25.9-15-28.4-16.4-2.5-1.4-14.2-8.1-26-15s-24.3-14.1-27.8-16l-6.3-3.5 5.3-4c7.2-5.4 38.7-28.7 46.8-34.6 3.6-2.5 18.7-13.6 33.5-24.6l27-19.9.3 73.6c.1 40.4 0 73.7-.2 73.9z"/></svg>